<svg width="134" height="33" viewBox="0 0 134 33" fill="none" xmlns="http://www.w3.org/2000/svg">
<g id="Group">
<path id="Vector" d="M83.464 26.1192C81.1074 26.1192 78.5543 25.5301 77.1796 24.3518C75.4122 22.9771 74.2339 20.6204 74.2339 17.4783C74.2339 11.5867 77.1797 8.64093 83.2676 8.64093C89.3556 8.64093 92.3013 11.5867 92.3013 17.6747C92.1049 23.1735 89.1592 26.1192 83.464 26.1192ZM83.2676 11.5867C79.929 11.5867 78.5543 13.3542 78.5543 17.4783C78.5543 21.406 80.1254 23.3698 83.2676 23.3698C86.4098 23.3698 87.9808 21.6024 87.9808 17.4783C87.7845 13.3542 86.4098 11.5867 83.2676 11.5867Z" fill="#FF0000"/>
<path id="Vector_2" d="M103.495 22.7808C101.139 22.7808 100.353 22.5844 99.7639 21.9952C99.1747 21.4061 98.9784 21.0133 98.9784 19.4422V10.8012C98.9784 10.0157 98.1928 9.23016 97.4073 9.23016H95.247V18.4603C95.247 21.4061 95.4434 22.5844 96.4254 23.7627C97.6037 25.1374 99.1747 25.7266 101.728 25.7266H106.834V22.7808H103.495Z" fill="#FF0000"/>
<path id="Vector_3" d="M126.472 9.23016H123.919C122.937 9.23016 122.152 9.81932 121.759 10.6049L115.082 25.7266H117.635C118.617 25.7266 119.599 25.1374 119.992 24.3519L120.973 21.9952H127.454L128.436 24.3519C128.829 25.1374 129.614 25.7266 130.793 25.7266H133.542L126.472 9.23016ZM121.759 19.0494L124.116 13.3543L126.472 19.0494H121.759Z" fill="#FF0000"/>
<path id="Vector_4" d="M110.958 9.23016C109.976 9.23016 109.387 10.0157 109.387 10.8012V25.5302H111.547C112.529 25.5302 113.118 24.7446 113.118 23.9591V9.23016H110.958Z" fill="#FF0000"/>
<path id="Vector_5" d="M16.3 0C7.26626 0 0 7.26626 0 16.3C0 25.3337 7.26626 32.6 16.3 32.6C25.3337 32.6 32.6 25.3337 32.6 16.3C32.7964 7.26626 25.3337 0 16.3 0ZM16.4964 25.7265C18.4602 23.5663 20.4241 20.4241 20.0313 17.8711C19.6385 15.3181 17.6747 14.5325 16.4964 14.5325C15.3181 14.5325 13.3542 15.3181 12.9614 17.8711C12.3723 20.4241 14.3361 23.3699 16.4964 25.7265C10.0157 25.7265 4.71325 20.4241 4.71325 14.1398C4.71325 7.65903 10.0157 2.55301 16.3 2.55301C22.7807 2.55301 27.8867 7.65903 27.8867 14.1398C28.0831 20.4241 22.7807 25.7265 16.4964 25.7265Z" fill="#FF0000"/>
<path id="Vector_6" d="M53.4169 9.23013C52.4349 9.23013 51.453 9.81929 51.2566 10.6048L47.3289 20.6205L43.0084 10.6048C42.6157 9.81929 41.8301 9.23014 40.6518 9.03375H38.0988L45.3651 25.3337H47.5253C48.5072 25.3337 49.2928 24.7446 49.6855 23.959L56.3626 9.03375H53.4169" fill="#FF0000"/>
<path id="Vector_7" d="M62.0577 13.9434C62.6469 12.5687 64.0216 12.1759 66.3782 12.1759H71.4843V9.23016H65.0035C64.0216 9.23016 63.236 9.23016 62.4505 9.42655C62.0577 9.42655 61.4686 9.62294 61.0758 9.81932C60.0939 10.2121 59.5047 10.8013 59.5047 10.8013C58.9156 11.3904 58.3264 12.1759 57.9336 12.9615C57.3445 14.1398 57.1481 15.5145 57.1481 17.0856V17.282C57.1481 18.8531 57.3445 20.2278 57.9336 21.4061C58.3264 22.388 58.9156 23.1735 59.5047 23.5663C59.5047 23.5663 59.8975 23.9591 60.0939 23.9591C60.4867 24.3519 61.0758 24.5482 61.4686 24.7446C61.665 24.7446 61.8614 24.941 62.0577 24.941C62.2541 24.941 62.2541 24.941 62.2541 24.941C62.8433 25.1374 63.8252 25.1374 64.8071 25.1374H71.2879V22.1916H66.1818C63.8252 22.1916 62.4505 21.6025 61.8614 20.4241C61.665 19.835 61.4686 19.2458 61.4686 18.4603V18.2639H70.8951V15.5145H61.4686V15.3181C61.665 15.1217 61.8614 14.5326 62.0577 13.9434Z" fill="#FF0000"/>
</g>
</svg>
